HIERARCHY
ROOT joint_Root
{
	OFFSET 0.0 0.0 0.0
	CHANNELS 6 Xposition Yposition Zposition Zrotation Xrotation Yrotation 
	JOINT Hips
	{
		OFFSET -0.726466 93.3139 -2.00062
		CHANNELS 6 Xposition Yposition Zposition Zrotation Xrotation Yrotation 
		JOINT Spine
		{
			OFFSET 15.7357 0.0 0.0
			CHANNELS 6 Xposition Yposition Zposition Zrotation Xrotation Yrotation 
			JOINT Chest
			{
				OFFSET 8.98455 -0.406207 0.0
				CHANNELS 6 Xposition Yposition Zposition Zrotation Xrotation Yrotation 
				JOINT Neck
				{
					OFFSET 16.3773 0.0 0.0
					CHANNELS 6 Xposition Yposition Zposition Zrotation Xrotation Yrotation 
					JOINT Head
					{
						OFFSET 6.45672 0.0 0.0
						CHANNELS 6 Xposition Yposition Zposition Zrotation Xrotation Yrotation 
						End Site
						{
							OFFSET 0.0 0.0 0.0
						}
					}
				}
				JOINT Shoulder_L
				{
					OFFSET 12.9942 -0.242716 4.98039
					CHANNELS 6 Xposition Yposition Zposition Zrotation Xrotation Yrotation 
					JOINT UpperArm_L
					{
						OFFSET 5.34809 0.0 0.0
						CHANNELS 6 Xposition Yposition Zposition Zrotation Xrotation Yrotation 
						JOINT LowerArm_L
						{
							OFFSET 24.3286 1.87007e-05 0.0
							CHANNELS 6 Xposition Yposition Zposition Zrotation Xrotation Yrotation 
							JOINT Hand_L
							{
								OFFSET 22.2916 0.0 0.0
								CHANNELS 6 Xposition Yposition Zposition Zrotation Xrotation Yrotation 
								End Site
								{
									OFFSET 0.0 0.0 0.0
								}
							}
						}
					}
				}
				JOINT Shoulder_R
				{
					OFFSET 12.9945 -0.242716 -4.98039
					CHANNELS 6 Xposition Yposition Zposition Zrotation Xrotation Yrotation 
					JOINT UpperArm_R
					{
						OFFSET -5.34813 0.0 0.0
						CHANNELS 6 Xposition Yposition Zposition Zrotation Xrotation Yrotation 
						JOINT LowerArm_R
						{
							OFFSET -24.3289 0.000322201 0.0
							CHANNELS 6 Xposition Yposition Zposition Zrotation Xrotation Yrotation 
							JOINT Hand_R
							{
								OFFSET -22.2915 -0.000108084 0.0
								CHANNELS 6 Xposition Yposition Zposition Zrotation Xrotation Yrotation 
								End Site
								{
									OFFSET 0.0 0.0 0.0
								}
							}
						}
					}
				}
			}
		}
		JOINT UpperLeg_L
		{
			OFFSET -2.19248 -6.46944 0.0
			CHANNELS 6 Xposition Yposition Zposition Zrotation Xrotation Yrotation 
			JOINT LowerLeg_L
			{
				OFFSET 39.0811 0.0 -1.23785e-05
				CHANNELS 6 Xposition Yposition Zposition Zrotation Xrotation Yrotation 
				JOINT Foot_L
				{
					OFFSET 40.9854 0.0 -1.26872e-05
					CHANNELS 6 Xposition Yposition Zposition Zrotation Xrotation Yrotation 
					JOINT Toes_L
					{
						OFFSET 11.7543 0.0 0.0
						CHANNELS 6 Xposition Yposition Zposition Zrotation Xrotation Yrotation 
						End Site
						{
							OFFSET 0.0 0.0 0.0
						}
					}
				}
			}
		}
		JOINT UpperLeg_R
		{
			OFFSET -2.19251 6.46944 0.0
			CHANNELS 6 Xposition Yposition Zposition Zrotation Xrotation Yrotation 
			JOINT LowerLeg_R
			{
				OFFSET -39.0811 -0.00228153 -0.0401928
				CHANNELS 6 Xposition Yposition Zposition Zrotation Xrotation Yrotation 
				JOINT Foot_R
				{
					OFFSET -40.9854 0.0 0.0
					CHANNELS 6 Xposition Yposition Zposition Zrotation Xrotation Yrotation 
					JOINT Toes_R
					{
						OFFSET -11.7543 0.0 0.0
						CHANNELS 6 Xposition Yposition Zposition Zrotation Xrotation Yrotation 
						End Site
						{
							OFFSET 0.0 0.0 0.0
						}
					}
				}
			}
		}
	}
}
MOTION
Frames:	5
Frame Time:	0.0333333
0.000000 0.000000 0.000000 0.000000 0.000000 -0.000000 -0.269833 92.484200 -1.700460 88.043300 -1.100460 2.655610 15.735700 0.000005 -0.000001 80.375300 85.704900 -79.804500 8.984550 -0.406207 -0.000000 0.711237 -1.470870 1.149790 16.377300 -0.000001 -0.000001 2.352050 -2.194230 0.661778 6.456720 -0.000001 -0.000000 2.254660 -1.914350 -1.283100 12.994200 -0.242716 4.980390 -90.071200 0.210683 -71.334600 5.348090 -0.000007 -0.000001 -69.499700 36.907800 -12.290300 24.328600 0.000019 0.000005 0.612231 1.486520 -22.386100 22.291600 -0.000001 0.000005 4.698140 5.463020 -5.111390 12.994500 -0.242716 -4.980390 88.102300 5.608090 -71.270500 -5.348130 -0.000001 -0.000004 -65.919700 36.469800 -15.688500 -24.328900 0.000322 -0.000009 1.923370 6.581160 -16.339300 -22.291500 -0.000108 -0.000004 5.265920 5.374300 -2.121570 -2.192480 -6.469440 -0.000000 -176.107000 -6.913570 -4.156630 39.081100 -0.000007 -0.000012 -0.085999 0.211740 22.104900 40.985400 -0.000006 -0.000013 -0.028221 2.587380 -65.504200 11.754300 -0.000000 0.000003 -0.000025 -0.000307 -16.589600 -2.192510 6.469440 -0.000001 179.863000 15.007800 179.088000 -39.081100 -0.002282 -0.040193 -0.009567 0.039089 18.252500 -40.985400 0.000008 0.000006 3.853230 6.533140 -65.174900 -11.754300 -0.000006 -0.000006 -0.005827 -0.069253 -19.391400
0.000000 0.000000 0.000000 0.000000 0.000000 -0.000000 -0.238444 92.499000 -1.727410 88.076200 -1.087390 2.629600 15.735700 0.000005 -0.000001 80.084900 85.704700 -79.572100 8.984550 -0.406207 -0.000000 0.703529 -1.510260 1.034250 16.377300 -0.000001 -0.000001 2.239870 -2.114220 0.624952 6.456720 -0.000001 -0.000000 2.261410 -1.787820 -1.300290 12.994200 -0.242716 4.980390 -90.021400 0.063313 -71.316100 5.348090 -0.000007 -0.000001 -69.734200 36.604600 -12.219900 24.328600 0.000019 0.000005 0.611806 1.490000 -22.324900 22.291600 -0.000001 0.000005 4.650150 5.463050 -5.112600 12.994500 -0.242716 -4.980390 88.074400 5.653390 -71.155300 -5.348130 -0.000001 -0.000004 -64.472600 35.171800 -16.625000 -24.328900 0.000322 -0.000009 2.187060 7.395770 -16.532300 -22.291500 -0.000108 -0.000004 3.109610 5.379030 -2.270360 -2.192480 -6.469440 -0.000000 -176.165000 -6.937440 -4.145100 39.081100 -0.000007 -0.000012 -0.084928 0.210333 21.987900 40.985400 -0.000006 -0.000013 -0.002449 2.610790 -65.428600 11.754300 -0.000000 0.000003 -0.000030 -0.000366 -16.591800 -2.192510 6.469440 -0.000001 179.844000 14.958900 179.067000 -39.081100 -0.002282 -0.040193 -0.007572 0.033146 18.198400 -40.985400 0.000008 0.000006 3.923720 6.444690 -65.136200 -11.754300 -0.000006 -0.000006 -0.005830 -0.069284 -19.392700
0.000000 0.000000 0.000000 0.000000 0.000000 -0.000000 -0.201800 92.501700 -1.778880 88.098000 -1.028240 2.656600 15.735700 0.000005 -0.000001 79.432600 85.677000 -78.988000 8.984550 -0.406207 -0.000000 0.740087 -1.612280 0.899155 16.377300 -0.000001 -0.000001 2.109560 -2.011330 0.627241 6.456720 -0.000001 -0.000000 2.109890 -1.544800 -1.503060 12.994200 -0.242716 4.980390 -89.993200 -0.019978 -71.295200 5.348090 -0.000007 -0.000001 -69.863200 36.289100 -12.172800 24.328600 0.000019 0.000005 0.665764 1.626260 -22.265700 22.291600 -0.000001 0.000005 4.743600 5.464000 -5.147380 12.994500 -0.242716 -4.980390 88.046900 5.633560 -70.843800 -5.348130 -0.000001 -0.000004 -62.514100 31.788800 -18.161300 -24.328900 0.000322 -0.000009 2.441680 8.204760 -16.642500 -22.291500 -0.000108 -0.000004 1.375600 5.378640 -2.255200 -2.192480 -6.469440 -0.000000 -176.201000 -6.995620 -4.167710 39.081100 -0.000007 -0.000012 -0.085016 0.210530 21.989700 40.985400 -0.000006 -0.000013 0.039568 2.697660 -65.385900 11.754300 -0.000000 0.000003 -0.000026 -0.000321 -16.590100 -2.192510 6.469440 -0.000001 179.803000 14.903900 179.043000 -39.081100 -0.002282 -0.040193 -0.008610 0.036239 18.227600 -40.985400 0.000008 0.000006 3.860620 6.353230 -65.102700 -11.754300 -0.000006 -0.000006 -0.005746 -0.068512 -19.361300
0.000000 0.000000 0.000000 0.000000 0.000000 -0.000000 -0.142597 92.510100 -1.826180 88.112600 -1.025910 2.610480 15.735700 0.000005 -0.000001 78.689900 85.686800 -78.323600 8.984550 -0.406207 -0.000000 0.698902 -1.713790 0.742519 16.377300 -0.000001 -0.000001 1.991410 -1.856580 0.650800 6.456720 -0.000001 -0.000000 1.906100 -1.150630 -1.885910 12.994200 -0.242716 4.980390 -89.969400 -0.090357 -71.266800 5.348090 -0.000007 -0.000001 -69.983300 35.985300 -12.125000 24.328600 0.000019 0.000005 0.675731 1.656690 -22.192000 22.291600 -0.000001 0.000005 4.692280 5.461910 -5.070990 12.994500 -0.242716 -4.980390 88.080100 5.429750 -70.492900 -5.348130 -0.000001 -0.000004 -60.268600 26.049400 -20.134500 -24.328900 0.000322 -0.000009 2.316380 7.701770 -16.802700 -22.291500 -0.000108 -0.000004 0.730103 5.366950 -1.891840 -2.192480 -6.469440 -0.000000 -176.253000 -7.172630 -4.226090 39.081100 -0.000007 -0.000012 -0.082608 0.204974 21.950300 40.985400 -0.000006 -0.000013 0.118160 2.852710 -65.338300 11.754300 -0.000000 0.000003 -0.000023 -0.000289 -16.588900 -2.192510 6.469440 -0.000001 179.768000 14.848000 178.982000 -39.081100 -0.002282 -0.040193 -0.009139 0.037928 18.190800 -40.985400 0.000008 0.000006 3.766080 6.317060 -65.035600 -11.754300 -0.000006 -0.000006 -0.005912 -0.070038 -19.423500
0.000000 0.000000 0.000000 0.000000 0.000000 -0.000000 -0.070079 92.516500 -1.880420 88.077200 -1.085010 2.575070 15.735700 0.000005 -0.000001 78.046000 85.704900 -77.769000 8.984550 -0.406207 -0.000000 0.642714 -1.795850 0.563581 16.377300 -0.000001 -0.000001 1.872500 -1.639890 0.631436 6.456720 -0.000001 -0.000000 1.680110 -0.705625 -2.234440 12.994200 -0.242716 4.980390 -89.942500 -0.168396 -71.143400 5.348090 -0.000007 -0.000001 -70.034000 35.722700 -12.176700 24.328600 0.000019 0.000005 0.742965 1.831770 -22.080700 22.291600 -0.000001 0.000005 4.724270 5.460560 -5.021610 12.994500 -0.242716 -4.980390 88.132700 5.183430 -70.157200 -5.348130 -0.000001 -0.000004 -57.862300 18.052800 -22.569800 -24.328900 0.000322 -0.000009 2.346050 7.528610 -17.371500 -22.291500 -0.000108 -0.000004 0.640788 5.345310 -1.237330 -2.192480 -6.469440 -0.000000 -176.261000 -7.364260 -4.301580 39.081100 -0.000007 -0.000012 -0.080605 0.199817 21.968900 40.985400 -0.000006 -0.000013 0.193447 2.961300 -65.317600 11.754300 -0.000000 0.000003 -0.000024 -0.000300 -16.589300 -2.192510 6.469440 -0.000001 179.777000 14.810500 178.909000 -39.081100 -0.002282 -0.040193 -0.009083 0.037836 18.156500 -40.985400 0.000008 0.000006 3.717810 6.336730 -64.953900 -11.754300 -0.000006 -0.000006 -0.005912 -0.070030 -19.423100
